<svg xmlns="http://www.w3.org/2000/svg" viewBox="0 0 23.007 16.91">
  <defs>
    <style>
      .cls-1 {
        fill: #40c0f0;
      }
    </style>
  </defs>
  <g id="Group_22" data-name="Group 22" transform="translate(-511.196 -3193.302)">
    <g id="Group_15" data-name="Group 15" transform="translate(-175 2817.115)">
      <g id="Group_10" data-name="Group 10" transform="translate(524 211)">
        <g id="Group_7" data-name="Group 7" transform="translate(162.196 165.187)">
          <path id="Path_24" data-name="Path 24" class="cls-1" d="M164.007,147.511a4.819,4.819,0,0,1-2.991-1.035,2.542,2.542,0,0,0-3.221,0,4.838,4.838,0,0,1-5.982,0,2.494,2.494,0,0,0-1.61-.575,2.276,2.276,0,0,0-1.61.575,4.838,4.838,0,0,1-5.982,0A2.494,2.494,0,0,0,141,145.9v-2.3a4.819,4.819,0,0,1,2.991,1.035,2.493,2.493,0,0,0,1.61.575,2.275,2.275,0,0,0,1.61-.575,4.838,4.838,0,0,1,5.982,0,2.494,2.494,0,0,0,1.61.575,2.275,2.275,0,0,0,1.61-.575,4.838,4.838,0,0,1,5.982,0,2.275,2.275,0,0,0,1.61.575Z" transform="translate(-141 -143.6)"/>
        </g>
        <g id="Group_8" data-name="Group 8" transform="translate(162.196 171.629)">
          <path id="Path_25" data-name="Path 25" class="cls-1" d="M164.007,153.111a4.819,4.819,0,0,1-2.991-1.035,2.494,2.494,0,0,0-1.61-.575,2.276,2.276,0,0,0-1.61.575,4.838,4.838,0,0,1-5.982,0,2.494,2.494,0,0,0-1.61-.575,2.276,2.276,0,0,0-1.61.575,4.838,4.838,0,0,1-5.982,0A2.276,2.276,0,0,0,141,151.5v-2.3a4.819,4.819,0,0,1,2.991,1.035,2.542,2.542,0,0,0,3.221,0,4.838,4.838,0,0,1,5.982,0,2.494,2.494,0,0,0,1.61.575,2.276,2.276,0,0,0,1.61-.575,4.838,4.838,0,0,1,5.982,0,2.494,2.494,0,0,0,1.61.575Z" transform="translate(-141 -149.2)"/>
        </g>
        <g id="Group_9" data-name="Group 9" transform="translate(162.196 178.186)">
          <path id="Path_26" data-name="Path 26" class="cls-1" d="M164.007,158.811a4.819,4.819,0,0,1-2.991-1.035,2.494,2.494,0,0,0-1.61-.575,2.276,2.276,0,0,0-1.61.575,4.838,4.838,0,0,1-5.982,0,2.494,2.494,0,0,0-1.61-.575,2.276,2.276,0,0,0-1.61.575,4.838,4.838,0,0,1-5.982,0A2.276,2.276,0,0,0,141,157.2v-2.3a4.819,4.819,0,0,1,2.991,1.035,2.542,2.542,0,0,0,3.221,0,4.838,4.838,0,0,1,5.982,0,2.494,2.494,0,0,0,1.61.575,2.276,2.276,0,0,0,1.61-.575,4.838,4.838,0,0,1,5.982,0,2.494,2.494,0,0,0,1.61.575Z" transform="translate(-141 -154.9)"/>
        </g>
      </g>
    </g>
  </g>
</svg>
