<?xml version="1.0" encoding="utf-8"?>
<!-- Generator: Adobe Illustrator 22.1.0, SVG Export Plug-In . SVG Version: 6.00 Build 0)  -->
<svg version="1.1" id="Layer_1" xmlns="http://www.w3.org/2000/svg" xmlns:xlink="http://www.w3.org/1999/xlink" x="0px" y="0px"
	 viewBox="0 0 352 310.9" style="enable-background:new 0 0 352 310.9;" xml:space="preserve">
<style type="text/css">
	.st0{fill:#231F20;}
	.st1{fill:#FFD200;}
	.st2{fill:#40C0F0;}
	.st3{enable-background:new    ;}
</style>
<g id="Group_20" transform="translate(-511 -184.115)">
	<g id="Group_11" transform="translate(-13 -26.885)">
		<g id="Group_10" transform="translate(524 211)">
			<g id="Group_1" transform="translate(15.875 62.923)">
				<path id="Path_1" class="st0" d="M33.1,34.7h-5.6l-6.3-20.8l-6.3,20.8H9.2L0,0.3h7.1l5.3,21.7l6.3-21.7h5.1l6.3,21.7l5.3-21.7h7
					L33.1,34.7z"/>
				<path id="Path_2" class="st0" d="M74.3,31.2c-5.2,5.1-13.5,5.1-18.6,0c-3.5-3.5-3.3-7.8-3.3-13.7S52.2,7.2,55.7,3.8
					c5.2-5.1,13.5-5.1,18.6,0c3.5,3.5,3.5,7.8,3.5,13.7S77.8,27.7,74.3,31.2z M69.4,7.8c-1.1-1.2-2.6-1.9-4.3-1.8
					c-1.7,0-3.2,0.6-4.4,1.8c-1.3,1.5-1.6,3-1.6,9.7s0.3,8.2,1.6,9.7c1.1,1.2,2.7,1.9,4.4,1.8c1.6,0.1,3.2-0.6,4.3-1.8
					c1.3-1.5,1.7-3,1.7-9.7S70.6,9.3,69.4,7.8z"/>
				<path id="Path_3" class="st0" d="M110.1,34.7l-6.7-13.7h-4.8v13.7h-6.7V0.3h13.5c7,0,11.2,4.8,11.2,10.6
					c0.1,4.1-2.5,7.7-6.3,9.1l7.7,14.8h-7.8L110.1,34.7z M104.9,6.3h-6.3v9.1h6.3c3,0,4.8-1.8,4.8-4.5c0-2.5-2-4.6-4.5-4.6
					C105.2,6.3,105,6.3,104.9,6.3z"/>
				<path id="Path_4" class="st0" d="M152.2,31.4c-2.5,2.3-5.7,3.5-9.1,3.3h-12.4V0.3h12.4c3.4-0.2,6.6,1,9.1,3.3
					c3.9,3.9,3.5,8.6,3.5,13.8C155.6,22.5,156,27.6,152.2,31.4z M147.5,8.4c-1.3-1.4-3.1-2.2-5.1-2.1h-5.1v22.4h5.1
					c1.9,0.1,3.8-0.6,5.1-2.1c1.3-1.5,1.5-4,1.5-9.2C149,12.2,148.7,10,147.5,8.4L147.5,8.4z"/>
				<path id="Path_5" class="st0" d="M181.3,35c-3.5,0.1-6.9-1.3-9.3-3.8c-3.5-3.5-3.3-7.8-3.3-13.7S168.5,7.2,172,3.8
					c2.5-2.5,5.8-3.9,9.3-3.8c6.4,0,11.5,3.7,12.7,10.9h-6.8c-0.7-2.8-2.4-4.8-5.8-4.8c-1.6-0.1-3.2,0.6-4.3,1.8
					c-1.3,1.5-1.7,3.1-1.7,9.7s0.3,8.3,1.7,9.7c1.1,1.2,2.6,1.9,4.3,1.8c2.9,0.1,5.4-2,5.8-4.8h6.8C192.7,31.3,187.6,35,181.3,35z"
					/>
				<path id="Path_6" class="st0" d="M226,34.7l-2.1-6.1h-12.2l-2.1,6.1h-7l12.5-34.4h5.3l12.5,34.4L226,34.7z M218,10.5L213.6,23
					h8.5L218,10.5z"/>
				<path id="Path_7" class="st0" d="M268.9,34.7V14.6l-6.6,13h-4.5l-6.7-13v20h-6.7V0.3h6.7l9,18.6l9-18.6h6.7v34.4H268.9
					L268.9,34.7z"/>
				<path id="Path_8" class="st0" d="M304.3,21.7h-6.7v13h-6.7V0.3h13.3c7.1,0,11.4,4.8,11.4,10.7S311.4,21.7,304.3,21.7z
					 M303.9,6.3h-6.3v9.4h6.3c3,0,4.9-1.8,4.9-4.7C309,8.3,307,6.3,303.9,6.3z"/>
			</g>
			<g id="Group_2" transform="translate(48.084 113.077)">
				<path id="Path_9" class="st0" d="M12.4,26.5H8.6L0,0.2h5.3l5.3,17l5.3-17h5.3L12.4,26.5z"/>
				<path id="Path_10" class="st0" d="M43.4,26.5l-1.5-4.6h-9.3l-1.6,4.6h-5.3l9.5-26.2h4l9.5,26.2H43.4z M37.3,7.9l-3.3,9.5h6.6
					L37.3,7.9z"/>
				<path id="Path_11" class="st0" d="M73,26.5L62.7,10.4v16.1h-5.1V0.2h4.6l10.4,16.1V0.2h5.1v26.2H73z"/>
				<path id="Path_12" class="st0" d="M98,26.7c-2.6,0.1-5.2-1-7-2.9c-2.6-2.6-2.5-6-2.5-10.5S88.3,5.5,91,2.9C92.8,1,95.4-0.1,98,0
					c4.9,0,8.7,2.8,9.7,8.3h-5.2c-0.3-2.2-2.2-3.8-4.4-3.7C96.9,4.5,95.7,5,94.9,6c-1,1.2-1.3,2.3-1.3,7.4s0.3,6.3,1.3,7.4
					c0.8,0.9,2,1.4,3.2,1.4c2.2,0.1,4.1-1.5,4.4-3.7h5.2C106.6,23.8,102.8,26.7,98,26.7z"/>
				<path id="Path_13" class="st0" d="M133.4,23.8c-1.8,1.9-4.4,2.9-7,2.9c-2.7,0.1-5.2-1-7.1-2.9c-2.6-2.6-2.5-6-2.5-10.5
					s-0.1-7.8,2.5-10.5c1.9-1.9,4.5-3,7.1-2.9c2.6-0.1,5.2,1,7,2.9c2.6,2.6,2.6,6,2.6,10.5C136,17.8,136.1,21.2,133.4,23.8z
					 M129.6,6c-0.8-0.9-2-1.4-3.2-1.4c-1.3,0-2.5,0.5-3.3,1.4c-1,1.2-1.3,2.3-1.3,7.4s0.2,6.2,1.3,7.4c0.9,0.9,2.1,1.4,3.3,1.4
					c1.2,0,2.4-0.5,3.2-1.4c1-1.2,1.3-2.3,1.3-7.4S130.6,7,129.6,6L129.6,6z"/>
				<path id="Path_14" class="st0" d="M156,26.7c-5.4,0-9.7-3.7-9.7-9.2V0.2h5.1v17c0,3,1.7,4.8,4.5,4.8s4.6-1.8,4.6-4.8v-17h5.1
					v17.3C165.6,23,161.4,26.7,156,26.7z"/>
				<path id="Path_15" class="st0" d="M186.5,26.5h-3.8l-8.7-26.2h5.3l5.3,17l5.3-17h5.3L186.5,26.5z"/>
				<path id="Path_16" class="st0" d="M203.8,26.5V0.2h17.3v4.6h-12.2v6.1h10.4v4.6h-10.4v6.3h12.2v4.6H203.8z"/>
				<path id="Path_17" class="st0" d="M245.5,26.5L240.4,16h-3.7v10.5h-5.1V0.2h10.2c5.3,0,8.5,3.7,8.5,8.1c0.1,3.1-1.9,5.9-4.8,6.9
					l5.9,11.3L245.5,26.5z M241.6,4.8h-4.8v6.9h4.8c2.3,0,3.7-1.4,3.7-3.5c0-1.9-1.4-3.4-3.3-3.5C241.8,4.8,241.7,4.8,241.6,4.8z"/>
			</g>
			<path id="Path_18" class="st1" d="M184.7,31.2l-3,4.4l-8.6-13l-15.3,22.8h36.3L184.7,31.2z"/>
			<g id="Group_3">
				<path id="Path_19" class="st0" d="M173.7,213.5l-0.9-0.3L0,155.8V46.8L173.8,0l0.7,0.2L352,46.8v108.9L173.7,213.5z M5.8,151.6
					l168.1,55.8l172.4-55.8V51.2L173.8,6L5.8,51.2V151.6z"/>
			</g>
			<g id="Group_6" transform="translate(125.616 163.461)">
				<g id="Group_4">
					<path id="Path_20" class="st0" d="M0,18.3v-3l6.8-7.8c0.6-0.6,0.9-1.4,0.9-2.2C7.8,4.1,6.8,3.1,5.6,3C4.4,2.9,3.4,3.9,3.3,5.1
						c0,0.1,0,0.1,0,0.2H0C0,2,2.4,0,5.5,0C8.7,0,11,2,11,5.3c0,1.7-0.7,2.6-2,4.1L4,15.3h7v3L0,18.3L0,18.3z"/>
					<path id="Path_21" class="st0" d="M23,18.4c-2.9,0.2-5.3-2-5.5-4.9c0-0.2,0-0.3,0-0.5V5.4c0.1-3,2.6-5.5,5.7-5.4
						c2.9,0.1,5.3,2.4,5.4,5.4V13c0,3-2.3,5.4-5.3,5.4C23.2,18.4,23.1,18.4,23,18.4z M25.1,5.5c0.1-1.2-0.7-2.3-1.9-2.4
						c-1.2-0.1-2.3,0.7-2.4,1.9c0,0.2,0,0.3,0,0.5V13c-0.1,1.2,0.7,2.3,1.9,2.4c1.2,0.1,2.3-0.7,2.4-1.9c0-0.2,0-0.3,0-0.5V5.5z"/>
				</g>
				<g id="Group_5" transform="translate(68.675 0)">
					<path id="Path_22" class="st0" d="M3.7,18.3V3.8L0,7V3.5l3.7-3.2H7v18.1H3.7z"/>
					<path id="Path_23" class="st0" d="M21.9,18.4c-3.2,0-5.8-2-5.8-5.4c0-1.7,0.9-3.2,2.3-4c-1.3-0.8-2.1-2.3-2.1-3.8
						C16.3,2,18.9,0,21.9,0s5.5,2,5.5,5.2c0,1.5-0.8,3-2.1,3.8c1.4,0.8,2.3,2.4,2.3,4C27.6,16.6,25.1,18.4,21.9,18.4z M21.9,10.5
						c-1.4,0-2.5,1.1-2.5,2.5c0,1.4,1.1,2.5,2.4,2.5c0,0,0.1,0,0.1,0c1.3,0.1,2.5-1,2.5-2.3c0-0.1,0-0.2,0-0.2
						c0-1.4-1.1-2.5-2.4-2.5C21.9,10.5,21.9,10.5,21.9,10.5L21.9,10.5z M21.9,3.1c-1.3,0-2.3,1-2.3,2.3c0,1.2,0.9,2.3,2.2,2.3
						c0,0,0.1,0,0.1,0c1.2,0.1,2.1-0.8,2.2-2c0-0.1,0-0.2,0-0.3c0.1-1.2-0.8-2.2-2-2.3C22,3.1,21.9,3.1,21.9,3.1L21.9,3.1z"/>
				</g>
			</g>
			<g id="Group_7" transform="translate(162.196 165.187)">
				<path id="Path_24" class="st2" d="M23,3.9c-1.1,0-2.1-0.4-3-1c-0.9-0.8-2.3-0.8-3.2,0c-1.8,1.4-4.2,1.4-6,0
					c-0.5-0.4-1-0.6-1.6-0.6C8.6,2.3,8,2.5,7.6,2.9c-1.8,1.4-4.2,1.4-6,0C1.2,2.5,0.6,2.3,0,2.3V0c1.1,0,2.1,0.4,3,1
					c0.5,0.4,1,0.6,1.6,0.6c0.6,0,1.2-0.2,1.6-0.6c1.8-1.4,4.2-1.4,6,0c0.5,0.4,1,0.6,1.6,0.6c0.6,0,1.2-0.2,1.6-0.6
					c1.8-1.4,4.2-1.4,6,0c0.4,0.4,1,0.6,1.6,0.6L23,3.9z"/>
			</g>
			<g id="Group_8" transform="translate(162.196 171.629)">
				<path id="Path_25" class="st2" d="M23,3.9c-1.1,0-2.1-0.4-3-1c-0.5-0.4-1-0.6-1.6-0.6c-0.6,0-1.2,0.2-1.6,0.6
					c-1.8,1.4-4.2,1.4-6,0c-0.5-0.4-1-0.6-1.6-0.6C8.6,2.3,8,2.5,7.6,2.9c-1.8,1.4-4.2,1.4-6,0C1.2,2.5,0.6,2.3,0,2.3V0
					c1.1,0,2.1,0.4,3,1c0.9,0.8,2.3,0.8,3.2,0c1.8-1.4,4.2-1.4,6,0c0.5,0.4,1,0.6,1.6,0.6c0.6,0,1.2-0.2,1.6-0.6
					c1.8-1.4,4.2-1.4,6,0c0.5,0.4,1,0.6,1.6,0.6L23,3.9z"/>
			</g>
			<g id="Group_9" transform="translate(162.196 178.186)">
				<path id="Path_26" class="st2" d="M23,3.9c-1.1,0-2.1-0.4-3-1c-0.5-0.4-1-0.6-1.6-0.6c-0.6,0-1.2,0.2-1.6,0.6
					c-1.8,1.4-4.2,1.4-6,0c-0.5-0.4-1-0.6-1.6-0.6C8.6,2.3,8,2.5,7.6,2.9c-1.8,1.4-4.2,1.4-6,0C1.2,2.5,0.6,2.3,0,2.3V0
					c1.1,0,2.1,0.4,3,1c0.9,0.8,2.3,0.8,3.2,0c1.8-1.4,4.2-1.4,6,0c0.5,0.4,1,0.6,1.6,0.6c0.6,0,1.2-0.2,1.6-0.6
					c1.8-1.4,4.2-1.4,6,0c0.5,0.4,1,0.6,1.6,0.6L23,3.9z"/>
			</g>
		</g>
	</g>
	<g class="st3">
		<path d="M582.3,457.4c-2.7,0-4.8-1.7-4.8-4.6c0-1.9,1.1-3,2.2-3.7c-1-0.6-1.9-1.7-1.9-3.4c0-2.6,2-4.3,4.6-4.3
			c2.6,0,4.6,1.7,4.6,4.3c0,1.7-0.9,2.8-1.9,3.4c1.1,0.7,2.2,1.8,2.2,3.7C587.1,455.7,585,457.4,582.3,457.4z M582.3,450.1
			c-1.5,0-2.6,1.2-2.6,2.6s1.1,2.6,2.6,2.6c1.5,0,2.6-1.1,2.6-2.6S583.7,450.1,582.3,450.1z M582.3,443.4c-1.4,0-2.3,1-2.3,2.4
			c0,1.4,0.9,2.4,2.3,2.4c1.4,0,2.3-1,2.3-2.4C584.6,444.5,583.7,443.4,582.3,443.4z"/>
		<path d="M595.1,457.4c-2.5,0-4.5-1.7-4.5-4.5v-7c0-2.8,2-4.5,4.5-4.5s4.5,1.7,4.5,4.5v7C599.7,455.7,597.6,457.4,595.1,457.4z
			 M597.4,446c0-1.5-0.9-2.6-2.3-2.6s-2.3,1-2.3,2.6v6.8c0,1.5,0.8,2.6,2.3,2.6s2.3-1,2.3-2.6V446z"/>
		<path d="M607.9,457.4c-2.5,0-4.5-1.7-4.5-4.5v-7c0-2.8,2-4.5,4.5-4.5s4.5,1.7,4.5,4.5v7C612.5,455.7,610.4,457.4,607.9,457.4z
			 M610.2,446c0-1.5-0.9-2.6-2.3-2.6s-2.3,1-2.3,2.6v6.8c0,1.5,0.8,2.6,2.3,2.6s2.3-1,2.3-2.6V446z"/>
		<path d="M632,457.2l-3.3-6.6h-3v6.6h-2.4v-15.7h6.1c3,0,4.9,1.9,4.9,4.6c0,2.2-1.4,3.7-3.1,4.2l3.6,6.9H632z M629.2,443.7h-3.5
			v4.9h3.5c1.6,0,2.7-0.9,2.7-2.4S630.8,443.7,629.2,443.7z"/>
		<path d="M648.1,455.7c-1.1,1.1-2.5,1.7-4.1,1.7s-3-0.6-4.1-1.7c-1.5-1.5-1.5-3.3-1.5-6.3s0-4.8,1.5-6.3c1.1-1.1,2.4-1.7,4.1-1.7
			s3.1,0.6,4.1,1.7c1.5,1.5,1.5,3.3,1.5,6.3S649.6,454.2,648.1,455.7z M646.2,444.5c-0.6-0.6-1.4-1-2.3-1c-0.9,0-1.8,0.4-2.3,1
			c-0.8,0.8-0.9,1.7-0.9,4.9s0.2,4,0.9,4.9c0.5,0.6,1.4,1,2.3,1c0.9,0,1.8-0.4,2.3-1c0.8-0.8,0.9-1.7,0.9-4.9S647,445.4,646.2,444.5
			z"/>
		<path d="M660.5,457.2h-6.3v-15.7h6.1c2.9,0,4.7,1.7,4.7,4.3c0,1.7-1.1,2.9-2.1,3.3c1.2,0.5,2.4,1.6,2.4,3.6
			C665.2,455.7,663.3,457.2,660.5,457.2z M660.1,443.7h-3.5v4.5h3.5c1.5,0,2.6-0.8,2.6-2.2C662.6,444.5,661.6,443.7,660.1,443.7z
			 M660.3,450.3h-3.7v4.8h3.7c1.7,0,2.6-1,2.6-2.4C662.9,451.3,661.9,450.3,660.3,450.3z"/>
		<path d="M674,457.4c-2.4,0-4-0.5-5.5-2.1l1.6-1.6c1.1,1.1,2.4,1.5,4,1.5c2,0,3.2-0.9,3.2-2.4c0-0.7-0.2-1.3-0.6-1.6
			c-0.4-0.4-0.8-0.5-1.7-0.7l-1.8-0.3c-1.3-0.2-2.3-0.6-3-1.3c-0.8-0.7-1.1-1.7-1.1-3c0-2.7,2-4.6,5.2-4.6c2.1,0,3.5,0.5,4.9,1.8
			l-1.5,1.5c-1-0.9-2.1-1.2-3.4-1.2c-1.8,0-2.9,1.1-2.9,2.4c0,0.6,0.2,1.1,0.6,1.5c0.4,0.4,1,0.6,1.8,0.7l1.8,0.3
			c1.5,0.2,2.3,0.6,2.9,1.2c0.9,0.7,1.3,1.9,1.3,3.2C679.6,455.7,677.3,457.4,674,457.4z"/>
		<path d="M693.1,455.7c-1.1,1.1-2.5,1.7-4.1,1.7c-1.7,0-3-0.6-4.1-1.7c-1.5-1.5-1.5-3.3-1.5-6.3s0-4.8,1.5-6.3
			c1.1-1.1,2.4-1.7,4.1-1.7c1.7,0,3.1,0.6,4.1,1.7c1.5,1.5,1.5,3.3,1.5,6.3S694.7,454.2,693.1,455.7z M691.3,444.5
			c-0.5-0.6-1.4-1-2.3-1s-1.8,0.4-2.3,1c-0.8,0.8-0.9,1.7-0.9,4.9s0.2,4,0.9,4.9c0.5,0.6,1.4,1,2.3,1s1.8-0.4,2.3-1
			c0.8-0.8,0.9-1.7,0.9-4.9S692.1,445.4,691.3,444.5z"/>
		<path d="M708.9,457.2l-7.2-11v11h-2.4v-15.7h2.2l7.2,11v-11h2.4v15.7H708.9z"/>
		<path d="M726.8,457.4c-2.4,0-4-0.5-5.5-2.1l1.6-1.6c1.1,1.1,2.4,1.5,4,1.5c2,0,3.2-0.9,3.2-2.4c0-0.7-0.2-1.3-0.6-1.6
			c-0.4-0.4-0.8-0.5-1.7-0.7l-1.8-0.3c-1.3-0.2-2.3-0.6-3-1.3c-0.8-0.7-1.1-1.7-1.1-3c0-2.7,2-4.6,5.2-4.6c2.1,0,3.5,0.5,4.9,1.8
			l-1.5,1.5c-1-0.9-2.1-1.2-3.4-1.2c-1.8,0-2.9,1.1-2.9,2.4c0,0.6,0.2,1.1,0.6,1.5c0.4,0.4,1,0.6,1.8,0.7l1.8,0.3
			c1.5,0.2,2.3,0.6,2.9,1.2c0.9,0.7,1.3,1.9,1.3,3.2C732.4,455.7,730,457.4,726.8,457.4z"/>
		<path d="M742,443.7v13.5h-2.4v-13.5h-4.3v-2.1h11v2.1H742z"/>
	</g>
	<g class="st3">
		<path d="M621,488.5c-1.1,1.1-2.5,1.7-4.1,1.7c-1.7,0-3-0.6-4.1-1.7c-1.5-1.5-1.5-3.3-1.5-6.3s0-4.8,1.5-6.3
			c1.1-1.1,2.4-1.7,4.1-1.7c1.7,0,3.1,0.6,4.1,1.7c1.5,1.5,1.5,3.3,1.5,6.3S622.5,486.9,621,488.5z M619.2,477.3
			c-0.5-0.6-1.4-1-2.3-1s-1.8,0.4-2.3,1c-0.8,0.8-0.9,1.7-0.9,4.9s0.2,4,0.9,4.9c0.5,0.6,1.4,1,2.3,1s1.8-0.4,2.3-1
			c0.8-0.8,0.9-1.7,0.9-4.9S619.9,478.2,619.2,477.3z"/>
		<path d="M632.1,490.2c-1.6,0-3-0.6-4.1-1.7c-1.5-1.5-1.5-3.3-1.5-6.3s0-4.8,1.5-6.3c1.1-1.1,2.5-1.7,4.1-1.7c2.9,0,5,1.7,5.6,4.8
			h-2.4c-0.4-1.6-1.4-2.7-3.2-2.7c-0.9,0-1.8,0.4-2.3,0.9c-0.8,0.8-0.9,1.7-0.9,4.9s0.2,4,0.9,4.9c0.5,0.6,1.4,0.9,2.3,0.9
			c1.7,0,2.8-1.1,3.2-2.7h2.4C637.2,488.5,635,490.2,632.1,490.2z"/>
		<path d="M646.9,476.5V490h-2.4v-13.5h-4.3v-2.1h11v2.1H646.9z"/>
		<path d="M664.9,490v-13.2l-3.1,2.7V477l3.1-2.6h2.2V490H664.9z"/>
		<path d="M677.9,490.2c-2.5,0-4.7-1.3-4.8-4.4h2.2c0.1,1.7,1.3,2.4,2.6,2.4c1.5,0,2.6-0.9,2.6-2.6c0-1.6-0.9-2.6-2.6-2.6h-0.4v-2
			h0.4c1.6,0,2.4-0.9,2.4-2.4c0-1.6-1-2.4-2.3-2.4c-1.4,0-2.2,0.9-2.4,2.2h-2.2c0.1-2.7,2.1-4.3,4.6-4.3c2.7,0,4.6,1.8,4.6,4.4
			c0,1.7-0.7,2.8-2,3.3c1.3,0.6,2.2,1.8,2.2,3.7C682.7,488.6,680.5,490.2,677.9,490.2z"/>
		<path d="M686.7,493.4v-6h2.6v3.9L686.7,493.4z"/>
		<path d="M699.8,490v-2l6-7.3c0.6-0.7,0.8-1.3,0.8-2.1c0-1.4-0.8-2.4-2.3-2.4c-1.2,0-2.3,0.7-2.3,2.4h-2.2c0-2.7,1.9-4.4,4.6-4.4
			c2.7,0,4.5,1.7,4.5,4.4c0,1.4-0.5,2.2-1.5,3.4l-4.9,6h6.4v2H699.8z"/>
		<path d="M717.1,490.2c-2.5,0-4.5-1.7-4.5-4.5v-7c0-2.8,2-4.5,4.5-4.5s4.5,1.7,4.5,4.5v7C721.6,488.5,719.6,490.2,717.1,490.2z
			 M719.4,478.8c0-1.5-0.9-2.6-2.3-2.6c-1.4,0-2.3,1-2.3,2.6v6.8c0,1.5,0.8,2.6,2.3,2.6c1.4,0,2.3-1,2.3-2.6V478.8z"/>
		<path d="M729.6,490v-13.2l-3.1,2.7V477l3.1-2.6h2.2V490H729.6z"/>
		<path d="M742.8,490.2c-2.7,0-4.8-1.7-4.8-4.6c0-1.9,1.1-3,2.2-3.7c-1-0.6-1.9-1.7-1.9-3.4c0-2.6,2-4.3,4.6-4.3s4.6,1.7,4.6,4.3
			c0,1.7-0.9,2.8-1.9,3.4c1.1,0.7,2.2,1.8,2.2,3.7C747.6,488.4,745.4,490.2,742.8,490.2z M742.8,482.9c-1.5,0-2.6,1.2-2.6,2.6
			s1.1,2.6,2.6,2.6s2.6-1.1,2.6-2.6S744.2,482.9,742.8,482.9z M742.8,476.2c-1.4,0-2.3,1-2.3,2.4c0,1.4,0.9,2.4,2.3,2.4
			s2.3-1,2.3-2.4C745.1,477.3,744.1,476.2,742.8,476.2z"/>
	</g>
</g>
</svg>
