<?xml version="1.0" encoding="utf-8"?>
<!-- Generator: Adobe Illustrator 22.1.0, SVG Export Plug-In . SVG Version: 6.00 Build 0)  -->
<svg version="1.1" id="Layer_1" xmlns="http://www.w3.org/2000/svg" xmlns:xlink="http://www.w3.org/1999/xlink" x="0px" y="0px"
	 viewBox="0 0 352 325.9" style="enable-background:new 0 0 352 325.9;" xml:space="preserve">
<style type="text/css">
	.st0{fill:#231F20;}
	.st1{fill:#FFD200;}
	.st2{fill:#40C0F0;}
	.st3{enable-background:new    ;}
</style>
<g id="Group_20" transform="translate(-511 -184.115)">
	<g id="Group_11" transform="translate(-13 -26.885)">
		<g id="Group_10" transform="translate(524 211)">
			<g id="Group_1" transform="translate(15.875 62.923)">
				<path id="Path_1" class="st0" d="M33.1,34.7h-5.6l-6.3-20.8l-6.3,20.8H9.2L0,0.3h7.1l5.3,21.7l6.3-21.7h5.1l6.3,21.7l5.3-21.7h7
					L33.1,34.7z"/>
				<path id="Path_2" class="st0" d="M74.3,31.2c-5.2,5.1-13.5,5.1-18.6,0c-3.5-3.5-3.3-7.8-3.3-13.7S52.2,7.2,55.7,3.8
					c5.2-5.1,13.5-5.1,18.6,0c3.5,3.5,3.5,7.8,3.5,13.7S77.8,27.7,74.3,31.2z M69.4,7.8c-1.1-1.2-2.6-1.9-4.3-1.8
					c-1.7,0-3.2,0.6-4.4,1.8c-1.3,1.5-1.6,3-1.6,9.7s0.3,8.2,1.6,9.7c1.1,1.2,2.7,1.9,4.4,1.8c1.6,0.1,3.2-0.6,4.3-1.8
					c1.3-1.5,1.7-3,1.7-9.7S70.6,9.3,69.4,7.8z"/>
				<path id="Path_3" class="st0" d="M110.1,34.7l-6.7-13.7h-4.8v13.7h-6.7V0.3h13.5c7,0,11.2,4.8,11.2,10.6
					c0.1,4.1-2.5,7.7-6.3,9.1l7.7,14.8h-7.8L110.1,34.7z M104.9,6.3h-6.3v9.1h6.3c3,0,4.8-1.8,4.8-4.5c0-2.5-2-4.6-4.5-4.6
					C105.2,6.3,105,6.3,104.9,6.3z"/>
				<path id="Path_4" class="st0" d="M152.2,31.4c-2.5,2.3-5.7,3.5-9.1,3.3h-12.4V0.3h12.4c3.4-0.2,6.6,1,9.1,3.3
					c3.9,3.9,3.5,8.6,3.5,13.8C155.6,22.5,156,27.6,152.2,31.4z M147.5,8.4c-1.3-1.4-3.1-2.2-5.1-2.1h-5.1v22.4h5.1
					c1.9,0.1,3.8-0.6,5.1-2.1c1.3-1.5,1.5-4,1.5-9.2C149,12.2,148.7,10,147.5,8.4L147.5,8.4z"/>
				<path id="Path_5" class="st0" d="M181.3,35c-3.5,0.1-6.9-1.3-9.3-3.8c-3.5-3.5-3.3-7.8-3.3-13.7S168.5,7.2,172,3.8
					c2.5-2.5,5.8-3.9,9.3-3.8c6.4,0,11.5,3.7,12.7,10.9h-6.8c-0.7-2.8-2.4-4.8-5.8-4.8c-1.6-0.1-3.2,0.6-4.3,1.8
					c-1.3,1.5-1.7,3.1-1.7,9.7s0.3,8.3,1.7,9.7c1.1,1.2,2.6,1.9,4.3,1.8c2.9,0.1,5.4-2,5.8-4.8h6.8C192.7,31.3,187.6,35,181.3,35z"
					/>
				<path id="Path_6" class="st0" d="M226,34.7l-2.1-6.1h-12.2l-2.1,6.1h-7l12.5-34.4h5.3l12.5,34.4L226,34.7z M218,10.5L213.6,23
					h8.5L218,10.5z"/>
				<path id="Path_7" class="st0" d="M268.9,34.7V14.6l-6.6,13h-4.5l-6.7-13v20h-6.7V0.3h6.7l9,18.6l9-18.6h6.7v34.4H268.9
					L268.9,34.7z"/>
				<path id="Path_8" class="st0" d="M304.3,21.7h-6.7v13h-6.7V0.3h13.3c7.1,0,11.4,4.8,11.4,10.7S311.4,21.7,304.3,21.7z
					 M303.9,6.3h-6.3v9.4h6.3c3,0,4.9-1.8,4.9-4.7C309,8.3,307,6.3,303.9,6.3z"/>
			</g>
			<g id="Group_2" transform="translate(48.084 113.077)">
				<path id="Path_9" class="st0" d="M12.4,26.5H8.6L0,0.2h5.3l5.3,17l5.3-17h5.3L12.4,26.5z"/>
				<path id="Path_10" class="st0" d="M43.4,26.5l-1.5-4.6h-9.3l-1.6,4.6h-5.3l9.5-26.2h4l9.5,26.2H43.4z M37.3,7.9l-3.3,9.5h6.6
					L37.3,7.9z"/>
				<path id="Path_11" class="st0" d="M73,26.5L62.7,10.4v16.1h-5.1V0.2h4.6l10.4,16.1V0.2h5.1v26.2H73z"/>
				<path id="Path_12" class="st0" d="M98,26.7c-2.6,0.1-5.2-1-7-2.9c-2.6-2.6-2.5-6-2.5-10.5S88.3,5.5,91,2.9C92.8,1,95.4-0.1,98,0
					c4.9,0,8.7,2.8,9.7,8.3h-5.2c-0.3-2.2-2.2-3.8-4.4-3.7C96.9,4.5,95.7,5,94.9,6c-1,1.2-1.3,2.3-1.3,7.4s0.3,6.3,1.3,7.4
					c0.8,0.9,2,1.4,3.2,1.4c2.2,0.1,4.1-1.5,4.4-3.7h5.2C106.6,23.8,102.8,26.7,98,26.7z"/>
				<path id="Path_13" class="st0" d="M133.4,23.8c-1.8,1.9-4.4,2.9-7,2.9c-2.7,0.1-5.2-1-7.1-2.9c-2.6-2.6-2.5-6-2.5-10.5
					s-0.1-7.8,2.5-10.5c1.9-1.9,4.5-3,7.1-2.9c2.6-0.1,5.2,1,7,2.9c2.6,2.6,2.6,6,2.6,10.5C136,17.8,136.1,21.2,133.4,23.8z
					 M129.6,6c-0.8-0.9-2-1.4-3.2-1.4c-1.3,0-2.5,0.5-3.3,1.4c-1,1.2-1.3,2.3-1.3,7.4s0.2,6.2,1.3,7.4c0.9,0.9,2.1,1.4,3.3,1.4
					c1.2,0,2.4-0.5,3.2-1.4c1-1.2,1.3-2.3,1.3-7.4S130.6,7,129.6,6L129.6,6z"/>
				<path id="Path_14" class="st0" d="M156,26.7c-5.4,0-9.7-3.7-9.7-9.2V0.2h5.1v17c0,3,1.7,4.8,4.5,4.8s4.6-1.8,4.6-4.8v-17h5.1
					v17.3C165.6,23,161.4,26.7,156,26.7z"/>
				<path id="Path_15" class="st0" d="M186.5,26.5h-3.8l-8.7-26.2h5.3l5.3,17l5.3-17h5.3L186.5,26.5z"/>
				<path id="Path_16" class="st0" d="M203.8,26.5V0.2h17.3v4.6h-12.2v6.1h10.4v4.6h-10.4v6.3h12.2v4.6H203.8z"/>
				<path id="Path_17" class="st0" d="M245.5,26.5L240.4,16h-3.7v10.5h-5.1V0.2h10.2c5.3,0,8.5,3.7,8.5,8.1c0.1,3.1-1.9,5.9-4.8,6.9
					l5.9,11.3L245.5,26.5z M241.6,4.8h-4.8v6.9h4.8c2.3,0,3.7-1.4,3.7-3.5c0-1.9-1.4-3.4-3.3-3.5C241.8,4.8,241.7,4.8,241.6,4.8z"/>
			</g>
			<path id="Path_18" class="st1" d="M184.7,31.2l-3,4.4l-8.6-13l-15.3,22.8h36.3L184.7,31.2z"/>
			<g id="Group_3">
				<path id="Path_19" class="st0" d="M173.7,213.5l-0.9-0.3L0,155.8V46.8L173.8,0l0.7,0.2L352,46.8v108.9L173.7,213.5z M5.8,151.6
					l168.1,55.8l172.4-55.8V51.2L173.8,6L5.8,51.2V151.6z"/>
			</g>
			<g id="Group_6" transform="translate(125.616 163.461)">
				<g id="Group_4">
					<path id="Path_20" class="st0" d="M0,18.3v-3l6.8-7.8c0.6-0.6,0.9-1.4,0.9-2.2C7.8,4.1,6.8,3.1,5.6,3C4.4,2.9,3.4,3.9,3.3,5.1
						c0,0.1,0,0.1,0,0.2H0C0,2,2.4,0,5.5,0C8.7,0,11,2,11,5.3c0,1.7-0.7,2.6-2,4.1L4,15.3h7v3L0,18.3L0,18.3z"/>
					<path id="Path_21" class="st0" d="M23,18.4c-2.9,0.2-5.3-2-5.5-4.9c0-0.2,0-0.3,0-0.5V5.4c0.1-3,2.6-5.5,5.7-5.4
						c2.9,0.1,5.3,2.4,5.4,5.4V13c0,3-2.3,5.4-5.3,5.4C23.2,18.4,23.1,18.4,23,18.4z M25.1,5.5c0.1-1.2-0.7-2.3-1.9-2.4
						c-1.2-0.1-2.3,0.7-2.4,1.9c0,0.2,0,0.3,0,0.5V13c-0.1,1.2,0.7,2.3,1.9,2.4c1.2,0.1,2.3-0.7,2.4-1.9c0-0.2,0-0.3,0-0.5V5.5z"/>
				</g>
				<g id="Group_5" transform="translate(68.675 0)">
					<path id="Path_22" class="st0" d="M3.7,18.3V3.8L0,7V3.5l3.7-3.2H7v18.1H3.7z"/>
					<path id="Path_23" class="st0" d="M21.9,18.4c-3.2,0-5.8-2-5.8-5.4c0-1.7,0.9-3.2,2.3-4c-1.3-0.8-2.1-2.3-2.1-3.8
						C16.3,2,18.9,0,21.9,0s5.5,2,5.5,5.2c0,1.5-0.8,3-2.1,3.8c1.4,0.8,2.3,2.4,2.3,4C27.6,16.6,25.1,18.4,21.9,18.4z M21.9,10.5
						c-1.4,0-2.5,1.1-2.5,2.5c0,1.4,1.1,2.5,2.4,2.5c0,0,0.1,0,0.1,0c1.3,0.1,2.5-1,2.5-2.3c0-0.1,0-0.2,0-0.2
						c0-1.4-1.1-2.5-2.4-2.5C21.9,10.5,21.9,10.5,21.9,10.5L21.9,10.5z M21.9,3.1c-1.3,0-2.3,1-2.3,2.3c0,1.2,0.9,2.3,2.2,2.3
						c0,0,0.1,0,0.1,0c1.2,0.1,2.1-0.8,2.2-2c0-0.1,0-0.2,0-0.3c0.1-1.2-0.8-2.2-2-2.3C22,3.1,21.9,3.1,21.9,3.1L21.9,3.1z"/>
				</g>
			</g>
			<g id="Group_7" transform="translate(162.196 165.187)">
				<path id="Path_24" class="st2" d="M23,3.9c-1.1,0-2.1-0.4-3-1c-0.9-0.8-2.3-0.8-3.2,0c-1.8,1.4-4.2,1.4-6,0
					c-0.5-0.4-1-0.6-1.6-0.6C8.6,2.3,8,2.5,7.6,2.9c-1.8,1.4-4.2,1.4-6,0C1.2,2.5,0.6,2.3,0,2.3V0c1.1,0,2.1,0.4,3,1
					c0.5,0.4,1,0.6,1.6,0.6c0.6,0,1.2-0.2,1.6-0.6c1.8-1.4,4.2-1.4,6,0c0.5,0.4,1,0.6,1.6,0.6c0.6,0,1.2-0.2,1.6-0.6
					c1.8-1.4,4.2-1.4,6,0c0.4,0.4,1,0.6,1.6,0.6L23,3.9z"/>
			</g>
			<g id="Group_8" transform="translate(162.196 171.629)">
				<path id="Path_25" class="st2" d="M23,3.9c-1.1,0-2.1-0.4-3-1c-0.5-0.4-1-0.6-1.6-0.6c-0.6,0-1.2,0.2-1.6,0.6
					c-1.8,1.4-4.2,1.4-6,0c-0.5-0.4-1-0.6-1.6-0.6C8.6,2.3,8,2.5,7.6,2.9c-1.8,1.4-4.2,1.4-6,0C1.2,2.5,0.6,2.3,0,2.3V0
					c1.1,0,2.1,0.4,3,1c0.9,0.8,2.3,0.8,3.2,0c1.8-1.4,4.2-1.4,6,0c0.5,0.4,1,0.6,1.6,0.6c0.6,0,1.2-0.2,1.6-0.6
					c1.8-1.4,4.2-1.4,6,0c0.5,0.4,1,0.6,1.6,0.6L23,3.9z"/>
			</g>
			<g id="Group_9" transform="translate(162.196 178.186)">
				<path id="Path_26" class="st2" d="M23,3.9c-1.1,0-2.1-0.4-3-1c-0.5-0.4-1-0.6-1.6-0.6c-0.6,0-1.2,0.2-1.6,0.6
					c-1.8,1.4-4.2,1.4-6,0c-0.5-0.4-1-0.6-1.6-0.6C8.6,2.3,8,2.5,7.6,2.9c-1.8,1.4-4.2,1.4-6,0C1.2,2.5,0.6,2.3,0,2.3V0
					c1.1,0,2.1,0.4,3,1c0.9,0.8,2.3,0.8,3.2,0c1.8-1.4,4.2-1.4,6,0c0.5,0.4,1,0.6,1.6,0.6c0.6,0,1.2-0.2,1.6-0.6
					c1.8-1.4,4.2-1.4,6,0c0.5,0.4,1,0.6,1.6,0.6L23,3.9z"/>
			</g>
		</g>
	</g>
	<g class="st3">
		<path d="M612.3,470.1c-2.4,0-4.4-1.6-4.4-4.1c0-1.7,1-2.7,2-3.3c-0.9-0.6-1.7-1.6-1.7-3.1c0-2.4,1.8-3.9,4.1-3.9
			c2.3,0,4.2,1.6,4.2,3.9c0,1.5-0.8,2.5-1.7,3.1c1,0.6,2,1.6,2,3.3C616.7,468.6,614.8,470.1,612.3,470.1z M612.3,463.6
			c-1.3,0-2.3,1.1-2.3,2.4s1,2.4,2.3,2.4s2.3-1,2.3-2.4S613.6,463.6,612.3,463.6z M612.3,457.5c-1.2,0-2.1,0.9-2.1,2.2
			c0,1.3,0.9,2.2,2.1,2.2s2.1-0.9,2.1-2.2C614.4,458.4,613.6,457.5,612.3,457.5z"/>
		<path d="M624,470.1c-2.3,0-4.1-1.5-4.1-4.1v-6.3c0-2.5,1.8-4.1,4.1-4.1c2.3,0,4.1,1.5,4.1,4.1v6.3
			C628.1,468.6,626.2,470.1,624,470.1z M626.1,459.8c0-1.4-0.8-2.3-2.1-2.3s-2.1,0.9-2.1,2.3v6.2c0,1.4,0.8,2.3,2.1,2.3
			s2.1-0.9,2.1-2.3V459.8z"/>
		<path d="M635.6,470.1c-2.3,0-4.1-1.5-4.1-4.1v-6.3c0-2.5,1.8-4.1,4.1-4.1c2.3,0,4.1,1.5,4.1,4.1v6.3
			C639.8,468.6,637.9,470.1,635.6,470.1z M637.7,459.8c0-1.4-0.8-2.3-2.1-2.3s-2.1,0.9-2.1,2.3v6.2c0,1.4,0.8,2.3,2.1,2.3
			s2.1-0.9,2.1-2.3V459.8z"/>
		<path d="M657.5,470l-3-6h-2.7v6h-2.2v-14.2h5.5c2.7,0,4.4,1.7,4.4,4.2c0,2-1.2,3.3-2.8,3.8l3.3,6.3H657.5z M655,457.7h-3.2v4.5
			h3.2c1.4,0,2.4-0.8,2.4-2.2S656.4,457.7,655,457.7z"/>
		<path d="M672.1,468.6c-1,1-2.2,1.5-3.8,1.5s-2.8-0.5-3.7-1.5c-1.4-1.4-1.4-3-1.4-5.7c0-2.7,0-4.3,1.4-5.7c1-1,2.2-1.5,3.7-1.5
			s2.8,0.5,3.8,1.5c1.4,1.4,1.4,3,1.4,5.7C673.5,465.6,673.5,467.2,672.1,468.6z M670.5,458.5c-0.5-0.5-1.3-0.9-2.1-0.9
			s-1.6,0.3-2.1,0.9c-0.7,0.8-0.8,1.6-0.8,4.4c0,2.9,0.1,3.7,0.8,4.4c0.5,0.5,1.3,0.9,2.1,0.9s1.6-0.3,2.1-0.9
			c0.7-0.8,0.8-1.6,0.8-4.4C671.3,460,671.2,459.2,670.5,458.5z"/>
		<path d="M683.4,470h-5.8v-14.2h5.5c2.6,0,4.3,1.5,4.3,3.9c0,1.5-1,2.6-1.9,3c1.1,0.4,2.1,1.5,2.1,3.3
			C687.7,468.6,685.9,470,683.4,470z M683,457.7h-3.2v4.1h3.2c1.4,0,2.3-0.7,2.3-2C685.3,458.4,684.4,457.7,683,457.7z M683.2,463.7
			h-3.4v4.3h3.4c1.5,0,2.3-0.9,2.3-2.2C685.6,464.6,684.7,463.7,683.2,463.7z"/>
		<path d="M695.7,470.1c-2.1,0-3.7-0.5-5-1.9l1.4-1.4c1,1,2.2,1.4,3.6,1.4c1.9,0,2.9-0.8,2.9-2.2c0-0.6-0.2-1.1-0.6-1.5
			c-0.4-0.3-0.7-0.5-1.6-0.6l-1.7-0.2c-1.2-0.2-2.1-0.6-2.7-1.1c-0.7-0.7-1-1.6-1-2.7c0-2.5,1.8-4.2,4.8-4.2c1.9,0,3.2,0.5,4.4,1.6
			l-1.4,1.4c-0.9-0.8-1.9-1.1-3.1-1.1c-1.7,0-2.6,1-2.6,2.2c0,0.5,0.2,1,0.5,1.3c0.4,0.3,0.9,0.6,1.6,0.7l1.6,0.2
			c1.3,0.2,2.1,0.5,2.7,1.1c0.8,0.7,1.2,1.7,1.2,2.9C700.8,468.6,698.7,470.1,695.7,470.1z"/>
		<path d="M713.1,468.6c-1,1-2.2,1.5-3.8,1.5s-2.8-0.5-3.7-1.5c-1.4-1.4-1.4-3-1.4-5.7c0-2.7,0-4.3,1.4-5.7c1-1,2.2-1.5,3.7-1.5
			s2.8,0.5,3.8,1.5c1.4,1.4,1.4,3,1.4,5.7C714.4,465.6,714.5,467.2,713.1,468.6z M711.4,458.5c-0.5-0.5-1.3-0.9-2.1-0.9
			s-1.6,0.3-2.1,0.9c-0.7,0.8-0.8,1.6-0.8,4.4c0,2.9,0.1,3.7,0.8,4.4c0.5,0.5,1.3,0.9,2.1,0.9s1.6-0.3,2.1-0.9
			c0.7-0.8,0.8-1.6,0.8-4.4C712.3,460,712.1,459.2,711.4,458.5z"/>
		<path d="M727.4,470l-6.6-10v10h-2.2v-14.2h2l6.6,10v-10h2.2V470H727.4z"/>
		<path d="M743.7,470.1c-2.1,0-3.7-0.5-5-1.9l1.4-1.4c1,1,2.2,1.4,3.6,1.4c1.9,0,2.9-0.8,2.9-2.2c0-0.6-0.2-1.1-0.6-1.5
			c-0.4-0.3-0.7-0.5-1.6-0.6l-1.7-0.2c-1.2-0.2-2.1-0.6-2.7-1.1c-0.7-0.7-1-1.6-1-2.7c0-2.5,1.8-4.2,4.8-4.2c1.9,0,3.2,0.5,4.4,1.6
			l-1.4,1.4c-0.9-0.8-1.9-1.1-3.1-1.1c-1.7,0-2.6,1-2.6,2.2c0,0.5,0.2,1,0.5,1.3c0.4,0.3,0.9,0.6,1.6,0.7l1.6,0.2
			c1.3,0.2,2.1,0.5,2.7,1.1c0.8,0.7,1.2,1.7,1.2,2.9C748.8,468.6,746.6,470.1,743.7,470.1z"/>
		<path d="M757.5,457.7V470h-2.2v-12.3h-3.9v-1.9h10v1.9H757.5z"/>
	</g>
	<g class="st3">
		<path d="M645.2,504.6c-1,1-2.2,1.5-3.8,1.5s-2.8-0.5-3.7-1.5c-1.4-1.4-1.4-3-1.4-5.7c0-2.7,0-4.3,1.4-5.7c1-1,2.2-1.5,3.7-1.5
			s2.8,0.5,3.8,1.5c1.4,1.4,1.4,3,1.4,5.7C646.6,501.6,646.6,503.2,645.2,504.6z M643.6,494.5c-0.5-0.5-1.3-0.9-2.1-0.9
			s-1.6,0.3-2.1,0.9c-0.7,0.8-0.8,1.6-0.8,4.4c0,2.9,0.1,3.7,0.8,4.4c0.5,0.5,1.3,0.9,2.1,0.9s1.6-0.3,2.1-0.9
			c0.7-0.8,0.8-1.6,0.8-4.4C644.4,496,644.3,495.2,643.6,494.5z"/>
		<path d="M655.4,506.1c-1.5,0-2.8-0.5-3.7-1.5c-1.4-1.4-1.4-3-1.4-5.7c0-2.7,0-4.3,1.4-5.7c1-1,2.3-1.5,3.7-1.5
			c2.6,0,4.6,1.5,5.1,4.4h-2.2c-0.3-1.4-1.3-2.4-2.9-2.4c-0.8,0-1.6,0.3-2.1,0.9c-0.7,0.8-0.9,1.6-0.9,4.4c0,2.9,0.2,3.7,0.9,4.4
			c0.5,0.5,1.3,0.9,2.1,0.9c1.6,0,2.6-1,2.9-2.4h2.2C660,504.6,658,506.1,655.4,506.1z"/>
		<path d="M668.8,493.7V506h-2.2v-12.3h-3.9v-1.9h10v1.9H668.8z"/>
		<path d="M685.1,506v-12l-2.8,2.4v-2.3l2.8-2.4h2V506H685.1z"/>
		<path d="M696.9,506.1c-2.3,0-4.3-1.2-4.4-4h2c0.1,1.5,1.1,2.2,2.3,2.2c1.3,0,2.3-0.9,2.3-2.4c0-1.4-0.8-2.3-2.4-2.3h-0.3v-1.8h0.3
			c1.5,0,2.2-0.9,2.2-2.2c0-1.4-0.9-2.2-2.1-2.2c-1.2,0-2,0.8-2.1,2h-2c0.1-2.4,1.9-3.9,4.2-3.9c2.4,0,4.1,1.6,4.1,4
			c0,1.5-0.7,2.5-1.8,3c1.2,0.5,2,1.6,2,3.4C701.3,504.7,699.3,506.1,696.9,506.1z"/>
		<path d="M705,509.1v-5.4h2.3v3.5L705,509.1z"/>
		<path d="M716.9,506v-1.8l5.5-6.7c0.5-0.7,0.8-1.2,0.8-1.9c0-1.3-0.8-2.2-2.1-2.2c-1.1,0-2.1,0.6-2.1,2.2h-2c0-2.4,1.7-4,4.1-4
			c2.4,0,4.1,1.5,4.1,4c0,1.3-0.5,2-1.3,3.1l-4.5,5.5h5.8v1.8H716.9z"/>
		<path d="M732.6,506.1c-2.3,0-4.1-1.5-4.1-4.1v-6.3c0-2.5,1.8-4.1,4.1-4.1c2.3,0,4.1,1.5,4.1,4.1v6.3
			C736.7,504.6,734.9,506.1,732.6,506.1z M734.7,495.8c0-1.4-0.8-2.3-2.1-2.3s-2.1,0.9-2.1,2.3v6.2c0,1.4,0.8,2.3,2.1,2.3
			s2.1-0.9,2.1-2.3V495.8z"/>
		<path d="M744,506v-12l-2.8,2.4v-2.3l2.8-2.4h2V506H744z"/>
		<path d="M755.9,506.1c-2.4,0-4.4-1.6-4.4-4.1c0-1.7,1-2.7,2-3.3c-0.9-0.6-1.7-1.6-1.7-3.1c0-2.4,1.8-3.9,4.1-3.9
			c2.3,0,4.2,1.6,4.2,3.9c0,1.5-0.8,2.5-1.7,3.1c1,0.6,2,1.6,2,3.3C760.3,504.6,758.4,506.1,755.9,506.1z M755.9,499.6
			c-1.3,0-2.3,1.1-2.3,2.4s1,2.4,2.3,2.4s2.3-1,2.3-2.4S757.3,499.6,755.9,499.6z M755.9,493.5c-1.2,0-2.1,0.9-2.1,2.2
			c0,1.3,0.9,2.2,2.1,2.2s2.1-0.9,2.1-2.2C758.1,494.4,757.2,493.5,755.9,493.5z"/>
	</g>
</g>
</svg>
