<svg xmlns="http://www.w3.org/2000/svg" viewBox="0 0 352 325.885">
  <defs>
    <style>
      .cls-1 {
        fill: #231f20;
      }

      .cls-2 {
        fill: #ffd200;
      }

      .cls-3 {
        fill: #40c0f0;
      }

      .cls-4 {
        font-size: 20px;
        font-family: DIN-Medium, DIN;
        font-weight: 500;
        letter-spacing: 0.05em;
      }

      text {
        font: "din-2014", sans-serif;
      }
    </style>
  </defs>
  <g id="Group_20" data-name="Group 20" transform="translate(-511 -184.115)">
    <g id="Group_11" data-name="Group 11" transform="translate(-13 -26.885)">
      <g id="Group_10" data-name="Group 10" transform="translate(524 211)">
        <g id="Group_1" data-name="Group 1" transform="translate(15.875 62.923)">
          <path id="Path_1" data-name="Path 1" class="cls-1" d="M46.929,89.395H41.293L34.966,68.574,28.639,89.395H23L13.8,55h7.132l5.292,21.741L32.55,55h5.061l6.327,21.741L49.23,55h7.017Z" transform="translate(-13.8 -54.655)"/>
          <path id="Path_2" data-name="Path 2" class="cls-1" d="M81.271,85.874a13.333,13.333,0,0,1-18.635,0C59.185,82.423,59.3,78.052,59.3,72.185S59.185,61.947,62.636,58.5a13.333,13.333,0,0,1,18.635,0c3.451,3.451,3.451,7.822,3.451,13.689S84.722,82.423,81.271,85.874ZM76.325,62.522a5.292,5.292,0,0,0-4.256-1.841A5.709,5.709,0,0,0,67.7,62.522c-1.265,1.5-1.61,2.991-1.61,9.663s.345,8.167,1.61,9.663a5.537,5.537,0,0,0,4.371,1.841,5.292,5.292,0,0,0,4.256-1.841c1.265-1.5,1.725-2.991,1.725-9.663S77.59,64.018,76.325,62.522Z" transform="translate(-6.96 -54.7)"/>
          <path id="Path_3" data-name="Path 3" class="cls-1" d="M111.875,89.395,105.2,75.706h-4.831V89.395H93.7V55h13.459c7.017,0,11.158,4.831,11.158,10.583a9.421,9.421,0,0,1-6.327,9.088L119.7,89.51h-7.822ZM106.7,60.982h-6.327v9.088H106.7c2.991,0,4.831-1.841,4.831-4.486A4.534,4.534,0,0,0,106.7,60.982Z" transform="translate(-1.789 -54.655)"/>
          <path id="Path_4" data-name="Path 4" class="cls-1" d="M148.911,86.059a12.51,12.51,0,0,1-9.088,3.336H127.4V55h12.424a12.51,12.51,0,0,1,9.088,3.336c3.911,3.911,3.451,8.627,3.451,13.8C152.362,77.2,152.707,82.263,148.911,86.059Zm-4.716-23.007a6.111,6.111,0,0,0-5.061-2.071h-5.061V83.413h5.061a6.111,6.111,0,0,0,5.061-2.071c1.265-1.5,1.5-4.026,1.5-9.2C145.69,66.848,145.46,64.663,144.195,63.052Z" transform="translate(3.277 -54.655)"/>
          <path id="Path_5" data-name="Path 5" class="cls-1" d="M173.054,89.67a12.743,12.743,0,0,1-9.318-3.8c-3.451-3.451-3.336-7.822-3.336-13.689s-.115-10.238,3.336-13.689a12.743,12.743,0,0,1,9.318-3.8c6.442,0,11.5,3.681,12.654,10.928H178.92c-.69-2.761-2.416-4.831-5.752-4.831a5.292,5.292,0,0,0-4.256,1.841c-1.265,1.5-1.725,3.106-1.725,9.663s.345,8.282,1.725,9.663a5.292,5.292,0,0,0,4.256,1.841,5.561,5.561,0,0,0,5.752-4.831h6.787C184.442,85.989,179.38,89.67,173.054,89.67Z" transform="translate(8.238 -54.7)"/>
          <path id="Path_6" data-name="Path 6" class="cls-1" d="M213.352,89.395l-2.071-6.1H199.088l-2.071,6.1H190L202.539,55h5.292l12.539,34.395ZM205.3,65.123l-4.371,12.539h8.512Z" transform="translate(12.688 -54.655)"/>
          <path id="Path_7" data-name="Path 7" class="cls-1" d="M250.787,89.395V69.264l-6.557,13h-4.486l-6.672-13V89.28H226.4V55h6.672l8.973,18.635L251.017,55h6.672V89.395h-6.9Z" transform="translate(18.159 -54.655)"/>
          <path id="Path_8" data-name="Path 8" class="cls-1" d="M280.044,76.4h-6.672v13H266.7V55h13.344c7.132,0,11.388,4.831,11.388,10.7S287.176,76.4,280.044,76.4ZM279.7,60.982h-6.327v9.433H279.7c2.991,0,4.946-1.841,4.946-4.716C284.76,62.937,282.8,60.982,279.7,60.982Z" transform="translate(24.218 -54.655)"/>
        </g>
        <g id="Group_2" data-name="Group 2" transform="translate(48.084 113.077)">
          <path id="Path_9" data-name="Path 9" class="cls-1" d="M54.224,124.727h-3.8L41.8,98.5h5.292l5.292,17.025L57.675,98.5h5.292Z" transform="translate(-41.8 -98.27)"/>
          <path id="Path_10" data-name="Path 10" class="cls-1" d="M81.815,124.727l-1.5-4.6H71l-1.61,4.6H64.1L73.648,98.5h4.026l9.548,26.227Zm-6.1-18.52-3.336,9.548h6.557Z" transform="translate(-38.448 -98.27)"/>
          <path id="Path_11" data-name="Path 11" class="cls-1" d="M107.314,124.727l-10.353-16.1v16.1H91.9V98.5h4.6l10.353,16.1V98.5h5.061v26.227Z" transform="translate(-34.269 -98.27)"/>
          <path id="Path_12" data-name="Path 12" class="cls-1" d="M128.248,124.988a9.535,9.535,0,0,1-7.017-2.876c-2.646-2.646-2.531-5.982-2.531-10.468s-.115-7.822,2.531-10.468a9.535,9.535,0,0,1,7.017-2.876c4.946,0,8.742,2.761,9.663,8.282h-5.176a4.275,4.275,0,0,0-4.371-3.681,3.861,3.861,0,0,0-3.221,1.38c-1.035,1.15-1.265,2.3-1.265,7.362s.345,6.327,1.265,7.362a4.218,4.218,0,0,0,3.221,1.38,4.275,4.275,0,0,0,4.371-3.681h5.176C136.875,122.112,133.079,124.988,128.248,124.988Z" transform="translate(-30.24 -98.3)"/>
          <path id="Path_13" data-name="Path 13" class="cls-1" d="M159.98,122.112a9.535,9.535,0,0,1-7.017,2.876,9.8,9.8,0,0,1-7.132-2.876c-2.646-2.646-2.531-5.982-2.531-10.468s-.115-7.822,2.531-10.468a9.613,9.613,0,0,1,7.132-2.876,9.351,9.351,0,0,1,7.017,2.876c2.646,2.646,2.646,5.982,2.646,10.468C162.511,116.13,162.626,119.466,159.98,122.112Zm-3.8-17.83a4.218,4.218,0,0,0-3.221-1.38,4.679,4.679,0,0,0-3.336,1.38c-1.035,1.15-1.265,2.3-1.265,7.362s.23,6.212,1.265,7.362a4.481,4.481,0,0,0,3.336,1.38,4.218,4.218,0,0,0,3.221-1.38c1.035-1.15,1.265-2.3,1.265-7.362S157.1,105.317,156.184,104.282Z" transform="translate(-26.542 -98.3)"/>
          <path id="Path_14" data-name="Path 14" class="cls-1" d="M178.663,124.958c-5.407,0-9.663-3.681-9.663-9.2V98.5h5.061v17.025c0,2.991,1.725,4.831,4.486,4.831s4.6-1.841,4.6-4.831V98.5h5.061v17.255C188.326,121.276,184.069,124.958,178.663,124.958Z" transform="translate(-22.678 -98.27)"/>
          <path id="Path_15" data-name="Path 15" class="cls-1" d="M205.539,124.727h-3.8L193,98.5h5.292l5.292,17.025L208.875,98.5h5.292Z" transform="translate(-19.071 -98.27)"/>
          <path id="Path_16" data-name="Path 16" class="cls-1" d="M219,124.727V98.5h17.255v4.6H224.061v6.1h10.353v4.6H224.061v6.327h12.193v4.6Z" transform="translate(-15.162 -98.27)"/>
          <path id="Path_17" data-name="Path 17" class="cls-1" d="M257,124.727l-5.061-10.468h-3.681v10.468H243.2V98.5h10.238c5.291,0,8.512,3.681,8.512,8.052a7.129,7.129,0,0,1-4.831,6.9l5.867,11.273ZM253.093,103.1h-4.831V110h4.831c2.3,0,3.681-1.38,3.681-3.451A3.386,3.386,0,0,0,253.093,103.1Z" transform="translate(-11.524 -98.27)"/>
        </g>
        <path id="Path_18" data-name="Path 18" class="cls-2" d="M164.118,28.227,161.127,32.6l-8.627-13L137.2,42.376h36.35Z" transform="translate(20.625 2.946)"/>
        <g id="Group_3" data-name="Group 3">
          <path id="Path_19" data-name="Path 19" class="cls-1" d="M173.7,213.5l-.92-.345L0,155.754V46.818L173.814,0l.69.23L352,46.818V155.754ZM5.752,151.613,173.814,207.4l172.434-55.791V51.19L173.814,5.982,5.752,51.19Z"/>
        </g>
        <g id="Group_6" data-name="Group 6" transform="translate(125.616 163.461)">
          <g id="Group_4" data-name="Group 4">
            <path id="Path_20" data-name="Path 20" class="cls-1" d="M109.2,160.39V157.4l6.787-7.822a3.047,3.047,0,0,0,.92-2.186,2.188,2.188,0,1,0-4.371,0H109.2c0-3.336,2.416-5.292,5.522-5.292,3.221,0,5.522,1.956,5.522,5.292,0,1.725-.69,2.646-1.956,4.141l-5.061,5.867h7.017v2.991H109.2Z" transform="translate(-109.2 -142.1)"/>
            <path id="Path_21" data-name="Path 21" class="cls-1" d="M129.922,160.505A5.22,5.22,0,0,1,124.4,155.1v-7.592a5.523,5.523,0,0,1,11.043,0V155.1A5.346,5.346,0,0,1,129.922,160.505Zm2.071-12.884a2.2,2.2,0,1,0-4.371,0V155.1a2.2,2.2,0,1,0,4.371,0Z" transform="translate(-106.915 -142.1)"/>
          </g>
          <g id="Group_5" data-name="Group 5" transform="translate(68.675 0)">
            <path id="Path_22" data-name="Path 22" class="cls-1" d="M172.581,160.36V145.866l-3.681,3.221v-3.566l3.681-3.221h3.336v18.06Z" transform="translate(-168.9 -142.07)"/>
            <path id="Path_23" data-name="Path 23" class="cls-1" d="M188.652,160.505c-3.221,0-5.752-1.956-5.752-5.407a4.615,4.615,0,0,1,2.3-4.026,4.452,4.452,0,0,1-2.071-3.8c0-3.221,2.531-5.176,5.522-5.176s5.522,1.956,5.522,5.176a4.621,4.621,0,0,1-2.071,3.8,4.615,4.615,0,0,1,2.3,4.026C194.4,158.665,191.873,160.505,188.652,160.505Zm0-7.937a2.553,2.553,0,0,0-2.531,2.531,2.481,2.481,0,0,0,2.531,2.531,2.415,2.415,0,0,0,2.531-2.531A2.481,2.481,0,0,0,188.652,152.568Zm0-7.362a2.307,2.307,0,0,0-2.3,2.3,2.236,2.236,0,0,0,2.3,2.3,2.086,2.086,0,0,0,2.186-2.3A2.146,2.146,0,0,0,188.652,145.206Z" transform="translate(-166.795 -142.1)"/>
          </g>
        </g>
        <g id="Group_7" data-name="Group 7" transform="translate(162.196 165.187)">
          <path id="Path_24" data-name="Path 24" class="cls-3" d="M164.007,147.511a4.819,4.819,0,0,1-2.991-1.035,2.542,2.542,0,0,0-3.221,0,4.838,4.838,0,0,1-5.982,0,2.494,2.494,0,0,0-1.61-.575,2.276,2.276,0,0,0-1.61.575,4.838,4.838,0,0,1-5.982,0A2.494,2.494,0,0,0,141,145.9v-2.3a4.819,4.819,0,0,1,2.991,1.035,2.493,2.493,0,0,0,1.61.575,2.275,2.275,0,0,0,1.61-.575,4.838,4.838,0,0,1,5.982,0,2.494,2.494,0,0,0,1.61.575,2.275,2.275,0,0,0,1.61-.575,4.838,4.838,0,0,1,5.982,0,2.275,2.275,0,0,0,1.61.575Z" transform="translate(-141 -143.6)"/>
        </g>
        <g id="Group_8" data-name="Group 8" transform="translate(162.196 171.629)">
          <path id="Path_25" data-name="Path 25" class="cls-3" d="M164.007,153.111a4.819,4.819,0,0,1-2.991-1.035,2.494,2.494,0,0,0-1.61-.575,2.276,2.276,0,0,0-1.61.575,4.838,4.838,0,0,1-5.982,0,2.494,2.494,0,0,0-1.61-.575,2.276,2.276,0,0,0-1.61.575,4.838,4.838,0,0,1-5.982,0A2.276,2.276,0,0,0,141,151.5v-2.3a4.819,4.819,0,0,1,2.991,1.035,2.542,2.542,0,0,0,3.221,0,4.838,4.838,0,0,1,5.982,0,2.494,2.494,0,0,0,1.61.575,2.276,2.276,0,0,0,1.61-.575,4.838,4.838,0,0,1,5.982,0,2.494,2.494,0,0,0,1.61.575Z" transform="translate(-141 -149.2)"/>
        </g>
        <g id="Group_9" data-name="Group 9" transform="translate(162.196 178.186)">
          <path id="Path_26" data-name="Path 26" class="cls-3" d="M164.007,158.811a4.819,4.819,0,0,1-2.991-1.035,2.494,2.494,0,0,0-1.61-.575,2.276,2.276,0,0,0-1.61.575,4.838,4.838,0,0,1-5.982,0,2.494,2.494,0,0,0-1.61-.575,2.276,2.276,0,0,0-1.61.575,4.838,4.838,0,0,1-5.982,0A2.276,2.276,0,0,0,141,157.2v-2.3a4.819,4.819,0,0,1,2.991,1.035,2.542,2.542,0,0,0,3.221,0,4.838,4.838,0,0,1,5.982,0,2.494,2.494,0,0,0,1.61.575,2.276,2.276,0,0,0,1.61-.575,4.838,4.838,0,0,1,5.982,0,2.494,2.494,0,0,0,1.61.575Z" transform="translate(-141 -154.9)"/>
        </g>
      </g>
    </g>
    <text id="_800_ROBSON_ST" data-name="800 ROBSON ST" class="cls-4" transform="translate(607 470)"><tspan x="0" y="0">800 ROBSON ST</tspan></text>
    <text id="OCT_13_2018" data-name="OCT 13, 2018" class="cls-4" transform="translate(635 506)"><tspan x="0" y="0">OCT 13, 2018</tspan></text>
  </g>
</svg>
